<svg width="512" xmlns="http://www.w3.org/2000/svg" height="512" fill="none"><defs><clipPath id="a" class="frame-clip frame-clip-def"><rect rx="0" ry="0" width="512" height="512" transform="matrix(1.000000, 0.000000, 0.000000, 1.000000, 0.000000, 0.000000)"/></clipPath></defs><g clip-path="url(#a)"><g class="fills"><rect width="512" height="512" class="frame-background" transform="matrix(1.000000, 0.000000, 0.000000, 1.000000, 0.000000, 0.000000)" style="fill: rgb(255, 255, 255); fill-opacity: 0;" ry="0" rx="0" fill="none"/></g><g class="frame-children"><defs><linearGradient id="b" x1=".5" y1="0" x2=".5" y2="1"><stop offset="0" stop-color="#fff"/><stop offset="1" stop-color="#532300"/></linearGradient><pattern patternUnits="userSpaceOnUse" x="60" y="19" width="392" height="474" patternTransform="matrix(1.000000, 0.000000, 0.000000, 1.000000, 0.000000, 0.000000)" id="c"><rect width="392" height="474" style="fill: url(&quot;#b&quot;);"/></pattern></defs><path d="M60.000,313.211C101.778,322.234,140.089,325.585,160.297,307.255C212.770,259.657,103.563,19.000,179.991,19.000C302.113,19.000,407.027,93.107,452.000,198.677C410.275,189.758,372.031,186.436,351.846,204.745C299.373,252.343,408.580,493.000,332.152,493.000C209.949,493.000,104.976,418.794,60.053,313.111" fill="url(#c)" class="fills"/><defs><linearGradient id="d" x1=".724" y1=".01" x2=".29" y2=".901"><stop offset="0" stop-color="#ffb100"/><stop offset="1" stop-color="#ffa000" stop-opacity="0"/></linearGradient><pattern patternUnits="userSpaceOnUse" x="60" y="19" width="392" height="474" patternTransform="matrix(1.000000, 0.000000, 0.000000, 1.000000, 0.000000, 0.000000)" id="e"><rect width="392" height="474" style="fill: url(&quot;#d&quot;);"/></pattern></defs><path d="M60.000,313.211C101.778,322.234,140.089,325.585,160.297,307.255C212.770,259.657,103.563,19.000,179.991,19.000C302.113,19.000,407.027,93.107,452.000,198.677C410.275,189.758,372.031,186.436,351.846,204.745C299.373,252.343,408.580,493.000,332.152,493.000C209.949,493.000,104.976,418.794,60.053,313.111" fill="url(#e)" class="fills"/></g></g></svg>